<?xml version="1.0" standalone="no"?><!DOCTYPE svg PUBLIC "-//W3C//DTD SVG 1.1//EN" "http://www.w3.org/Graphics/SVG/1.1/DTD/svg11.dtd"><svg t="1526993120621" class="icon" style="" viewBox="0 0 1024 1024" version="1.1" xmlns="http://www.w3.org/2000/svg" p-id="2889" xmlns:xlink="http://www.w3.org/1999/xlink" width="26" height="26"><defs><style type="text/css"></style></defs><path d="M512.13274 64C229.33274 64 0.13274 250.2 0.13274 480c0 95.2 39.8 182.4 105.8 252.6C76.13274 811.4 14.13274 878.2 13.13274 879c-13.2 14-16.8 34.4-9.2 52S28.93274 960 48.13274 960c123 0 220-51.4 278.2-92.6C384.13274 885.6 446.53274 896 512.13274 896c282.8 0 512-186.2 512-416S794.93274 64 512.13274 64z m0 736c-53.4 0-106.2-8.2-156.8-24.2l-45.4-14.4-39 27.6c-28.6 20.2-67.8 42.8-115 58 14.6-24.2 28.8-51.4 39.8-80.4l21.2-56.2-41.2-43.6C139.53274 628.2 96.13274 564.4 96.13274 480c0-176.4 186.6-320 416-320s416 143.6 416 320-186.6 320-416 320z" p-id="2890" fill="#2c2c2c"></path></svg>