<?xml version="1.0" standalone="no"?><!DOCTYPE svg PUBLIC "-//W3C//DTD SVG 1.1//EN" "http://www.w3.org/Graphics/SVG/1.1/DTD/svg11.dtd"><svg t="1526993728183" class="icon" style="" viewBox="0 0 1024 1024" version="1.1" xmlns="http://www.w3.org/2000/svg" p-id="7276" xmlns:xlink="http://www.w3.org/1999/xlink" width="26" height="26"><defs><style type="text/css"></style></defs><path d="M476.234 596.418v141.484c0 15.816 14.543 27.858 31.708 27.858 17.166 0 31.71-12.043 31.71-27.858V596.418c0-15.815-14.544-27.858-31.71-27.858-17.164 0-31.708 12.044-31.708 27.858z" fill="#2c2c2c" p-id="7277"></path><path d="M790.529 378.9c50.149 0 91.228 37.835 91.228 84.759v407.007c0 46.923-41.079 84.757-91.228 84.757H233.471c-50.149 0-91.228-37.834-91.228-84.757V463.659c0-46.924 41.079-84.758 91.228-84.758h31.139v-65.954c0-65.781 24.394-127.078 68.714-172.515 45.201-46.342 107.26-71.853 174.618-71.853s129.417 25.512 174.62 71.853c44.319 45.437 68.714 106.735 68.714 172.516V378.9h39.253z m-101.933-65.953c0-103.763-77.509-181.699-180.654-181.699-103.144 0-180.653 77.935-180.653 181.699v65.954h361.306v-65.954zM819.08 870.664V463.659c0-11.746-12.471-22.089-28.55-22.089H233.471c-16.078 0-28.549 10.343-28.549 22.089v407.005c0 11.746 12.471 22.089 28.549 22.089H790.53c16.079 0.001 28.55-10.343 28.55-22.089z" fill="#2c2c2c" p-id="7278"></path></svg>