<?xml version="1.0" standalone="no"?><!DOCTYPE svg PUBLIC "-//W3C//DTD SVG 1.1//EN" "http://www.w3.org/Graphics/SVG/1.1/DTD/svg11.dtd"><svg t="1526531962654" class="icon" style="" viewBox="0 0 1024 1024" version="1.1" xmlns="http://www.w3.org/2000/svg" p-id="4185" xmlns:xlink="http://www.w3.org/1999/xlink" width="26" height="26"><defs><style type="text/css"></style></defs><path d="M817.962667 719.189333c-60.672-104.789333-25.258667-162.730667-49.109334-356.693333-21.376-173.824-154.453333-223.573333-222.634666-237.781333V0H476.842667v124.714667c-68.266667 14.208-201.344 64-222.634667 237.738666-23.893333 193.877333 11.52 251.946667-49.152 356.736a290.048 290.048 0 0 1-54.954667 67.029334v40.490666h722.773334v-40.490666a288.768 288.768 0 0 1-54.912-66.986667z" fill="#ffffff" p-id="4186"></path><path d="M426.709333 938.197333a84.778667 83.029333 0 1 0 169.557334 0 84.778667 83.029333 0 1 0-169.557334 0Z" fill="#ffffff" p-id="4187"></path></svg>